<?xml version="1.0" standalone="no"?><!DOCTYPE svg PUBLIC "-//W3C//DTD SVG 1.1//EN" "http://www.w3.org/Graphics/SVG/1.1/DTD/svg11.dtd"><svg t="1653216603176" class="icon" viewBox="0 0 1024 1024" version="1.1" xmlns="http://www.w3.org/2000/svg" p-id="19320" xmlns:xlink="http://www.w3.org/1999/xlink" width="28" height="28"><defs><style type="text/css">@font-face { font-family: feedback-iconfont; src: url("//at.alicdn.com/t/font_1031158_u69w8yhxdu.woff2?t=1630033759944") format("woff2"), url("//at.alicdn.com/t/font_1031158_u69w8yhxdu.woff?t=1630033759944") format("woff"), url("//at.alicdn.com/t/font_1031158_u69w8yhxdu.ttf?t=1630033759944") format("truetype"); }
</style></defs><path d="M248.498 177.288h610.527c46.462 0 84.058 37.637 84.058 84.057 0 4.639-0.369 9.277-1.148 13.792L858.41 776.446c-6.771 40.551-41.822 70.267-82.909 70.267H164.974c-46.461 0-84.057-37.679-84.057-84.057 0-4.681 0.368-9.277 1.149-13.834l83.522-501.267c6.773-40.552 41.825-70.267 82.91-70.267z" fill="#FF4040" p-id="19321"></path><path d="M665.38 603.814c-40.551 1.231-55.162-20.151-43.835-64.233l35.421-154.857H626.76c-8.579 26.433-17.034 49.744-25.407 69.855 1.23 0 2.955 0.657 5.213 1.889 4.473 2.545 10.794 5.089 19.045 7.594l-13.422 58.528c-13.382-7.552-25.941-13.216-37.638-16.993-23.765 37.761-64.563 73.018-122.433 105.771l12.148-52.865c23.477-20.192 42.645-43.464 57.542-69.896-8.291-2.504-17.402-3.776-27.498-3.776l10.834-47.241c13.547 1.271 26.352 3.16 38.336 5.664 6.566-17.607 12.272-37.104 17.158-58.528H519.1l10.385-45.313h43.464l11.207-49.088h64.233l-11.247 49.088h94.401L684.877 543.36c-3.571 10.056-0.781 14.489 8.331 13.258h3.777c7.223 1.231 12.024-3.202 14.364-13.258l6.443-28.319h39.69l-8.21 35.912c-7.387 37.761-27.826 55.369-61.236 52.864H665.38zM346.799 386.611l10.834-47.201h50.978l11.245-49.088h66.081l-11.244 49.088h37.8l-10.794 47.201h-37.761l-12.148 52.864c15.679-2.503 29.51-5.008 41.413-7.553l-9.934 43.466c-16.294 5.049-30.33 8.824-42.233 11.328l-12.969 56.641c-8.538 42.809-33.451 63.577-74.701 62.347h-45.313l10.343-45.313h16.992c16.089 1.231 25.202-5.663 27.417-20.81l9.071-39.648c-16.621 1.273-35.34 3.16-56.024 5.664l12.929-56.681c18.921 0 37.309-0.575 55.204-1.889l13.831-60.416h-51.017z m-78.354 334.261c8.825-27.663 24.503-60.416 46.994-98.177h58.57c-18.429 36.528-32.219 69.242-41.331 98.177h-64.233z m247.37 0c5.993-31.439 7.143-64.193 3.613-98.177h60.416c3.572 33.983 4.27 66.737 2.092 98.177h-66.121z m-113.28 0c2.792-17.608 5.09-41.536 6.979-71.744 1.313-11.329 2.092-20.153 2.298-26.433h58.528c2.3 33.983 1.067 66.737-3.612 98.177h-64.193z m224.716 0c4.515-25.16 5.089-57.871 1.683-98.177h58.568c5.953 28.977 7.265 61.688 3.98 98.177h-64.231z" fill="#FFFFFF" p-id="19322"></path></svg>