<svg id="e0epovywddye1" xmlns="http://www.w3.org/2000/svg" xmlns:xlink="http://www.w3.org/1999/xlink" viewBox="0 0 200 200" shape-rendering="geometricPrecision" text-rendering="geometricPrecision"><style><![CDATA[#e0epovywddye2_ts {animation: e0epovywddye2_ts__ts 2000ms linear infinite normal forwards}@keyframes e0epovywddye2_ts__ts { 0% {transform: translate(155.972564px,174.800000px) scale(1,0.696137);animation-timing-function: cubic-bezier(0.690000,0.010000,0.290000,0.980000)} 50% {transform: translate(155.972564px,174.800000px) scale(1,1);animation-timing-function: cubic-bezier(0.690000,0.010000,0.290000,0.980000)} 100% {transform: translate(155.972564px,174.800000px) scale(1,0.696137)} }#e0epovywddye3_ts {animation: e0epovywddye3_ts__ts 2000ms linear infinite normal forwards}@keyframes e0epovywddye3_ts__ts { 0% {transform: translate(42.867056px,174.800000px) scale(1,0.889457);animation-timing-function: cubic-bezier(0.690000,0.010000,0.290000,0.980000)} 50% {transform: translate(42.867056px,174.800000px) scale(1,3.350164);animation-timing-function: cubic-bezier(0.690000,0.010000,0.290000,0.980000)} 100% {transform: translate(42.867056px,174.800000px) scale(1,0.889457)} }#e0epovywddye4_ts {animation: e0epovywddye4_ts__ts 2000ms linear infinite normal forwards}@keyframes e0epovywddye4_ts__ts { 0% {transform: translate(100px,174.777199px) scale(1,0.576982);animation-timing-function: cubic-bezier(0.690000,0.010000,0.290000,0.980000)} 50% {transform: translate(100px,174.777199px) scale(1,0.202319);animation-timing-function: cubic-bezier(0.690000,0.010000,0.290000,0.980000)} 100% {transform: translate(100px,174.777199px) scale(1,0.576982)} }]]></style><g id="e0epovywddye2_ts" transform="translate(155.972564,174.800000) scale(1,0.696137)"><path id="e0epovywddye2" d="M174.800000,174.800000C162.600000,174.800000,150.600000,174.800000,138.100000,174.800000C138.100000,146.222552,138.100000,117.561051,138.100000,88.563346C150.200000,88.563346,162.300000,88.563346,174.800000,88.563346C174.800000,117.224846,174.800000,145.886346,174.800000,174.800000Z" transform="translate(-156.450000,-174.800000)" fill="rgb(134,134,134)" stroke="none" stroke-width="1"/></g><g id="e0epovywddye3_ts" transform="translate(42.867056,174.800000) scale(1,0.889457)"><path id="e0epovywddye3" d="M61.600000,174.800001C49.500000,174.800001,37.300000,174.800001,24.800000,174.800001C24.800000,161.593878,24.800000,148.387755,24.800000,134.860836C37.200000,134.860836,49.200000,134.860836,61.600000,134.860836C61.600000,148.173891,61.600000,161.433480,61.600000,174.800001Z" transform="translate(-43.200001,-174.800000)" fill="rgb(134,134,134)" stroke="none" stroke-width="1"/></g><g id="e0epovywddye4_ts" transform="translate(100,174.777199) scale(1,0.576982)"><path id="e0epovywddye4" d="M118.200000,174.800000C106.300000,174.800000,94.200000,174.800000,81.800000,174.800000C81.800000,93.830964,81.800000,13.187106,81.800000,-68.432284C94.100000,-68.432284,105.900000,-68.432284,118.200000,-68.432284C118.200000,12.374164,118.200000,93.343199,118.200000,174.800000Z" transform="translate(-100,-174.700002)" fill="rgb(134,134,134)" stroke="none" stroke-width="1"/></g></svg>