<?xml version="1.0" standalone="no"?><!DOCTYPE svg PUBLIC "-//W3C//DTD SVG 1.1//EN" "http://www.w3.org/Graphics/SVG/1.1/DTD/svg11.dtd"><svg t="1657157239562" class="icon" viewBox="0 0 1024 1024" version="1.1" xmlns="http://www.w3.org/2000/svg" p-id="1377" xmlns:xlink="http://www.w3.org/1999/xlink" width="200" height="200"><defs><style type="text/css">@font-face { font-family: feedback-iconfont; src: url("//at.alicdn.com/t/font_1031158_u69w8yhxdu.woff2?t=1630033759944") format("woff2"), url("//at.alicdn.com/t/font_1031158_u69w8yhxdu.woff?t=1630033759944") format("woff"), url("//at.alicdn.com/t/font_1031158_u69w8yhxdu.ttf?t=1630033759944") format("truetype"); }
</style></defs><path d="M275.692308 512h472.615384v275.692308H275.692308z" fill="#E2FFFF" p-id="1378"></path><path d="M275.692308 393.846154H157.538462a39.384615 39.384615 0 0 0-39.108924 34.776615L118.153846 433.230769v393.846154a39.384615 39.384615 0 0 0 34.776616 39.108923L157.538462 866.461538h708.923076a39.384615 39.384615 0 0 0 39.108924-34.776615L905.846154 827.076923V433.230769a39.384615 39.384615 0 0 0-39.384616-39.384615h-78.76923V315.076923h78.76923a118.153846 118.153846 0 0 1 118.153847 118.153846v393.846154a118.153846 118.153846 0 0 1-118.153847 118.153846H157.538462a118.153846 118.153846 0 0 1-118.153847-118.153846V433.230769a118.153846 118.153846 0 0 1 118.153847-118.153846h118.153846v78.769231z" fill="#437DFF" p-id="1379"></path><path d="M472.615385 78.769231m39.384615 0l0 0q39.384615 0 39.384615 39.384615l0 512q0 39.384615-39.384615 39.384616l0 0q-39.384615 0-39.384615-39.384616l0-512q0-39.384615 39.384615-39.384615Z" fill="#437DFF" p-id="1380"></path><path d="M488.329846 7.916308a39.384615 39.384615 0 0 1 42.929231-2.875077L535.630769 7.876923l157.538462 118.153846a39.384615 39.384615 0 0 1-43.126154 65.732923L645.907692 189.046154 512 88.615385 378.761846 189.006769a39.384615 39.384615 0 0 1-51.948308-4.017231l-3.229538-3.780923a39.384615 39.384615 0 0 1 4.017231-51.908923l3.780923-3.229538 156.947692-118.153846z" fill="#437DFF" p-id="1381"></path><path d="M196.923077 315.076923h118.153846a39.384615 39.384615 0 1 1 0 78.769231H196.923077V315.076923zM827.076923 315.076923h-118.153846a39.384615 39.384615 0 0 0 0 78.769231h118.153846V315.076923z" fill="#437DFF" p-id="1382"></path></svg>