<?xml version="1.0" standalone="no"?><!DOCTYPE svg PUBLIC "-//W3C//DTD SVG 1.1//EN" "http://www.w3.org/Graphics/SVG/1.1/DTD/svg11.dtd"><svg t="1657157196707" class="icon" viewBox="0 0 1024 1024" version="1.1" xmlns="http://www.w3.org/2000/svg" p-id="940" xmlns:xlink="http://www.w3.org/1999/xlink" width="200" height="200"><defs><style type="text/css">@font-face { font-family: feedback-iconfont; src: url("//at.alicdn.com/t/font_1031158_u69w8yhxdu.woff2?t=1630033759944") format("woff2"), url("//at.alicdn.com/t/font_1031158_u69w8yhxdu.woff?t=1630033759944") format("woff"), url("//at.alicdn.com/t/font_1031158_u69w8yhxdu.ttf?t=1630033759944") format("truetype"); }
</style></defs><path d="M945.230769 512H157.538462v118.153846a157.538462 157.538462 0 0 0 157.538461 157.538462h472.615385a157.538462 157.538462 0 0 0 157.538461-157.538462v-118.153846z" fill="#FFE8E8" p-id="941"></path><path d="M481.910154 142.375385a78.769231 78.769231 0 0 1 106.574769 6.459077l4.253539 4.844307 185.107692 227.131077 127.566769-110.001231a59.076923 59.076923 0 0 1 97.595077 47.18277l-0.512 5.671384-50.136615 362.102154a118.153846 118.153846 0 0 1-110.001231 101.730462l-7.089231 0.196923H228.115692a118.153846 118.153846 0 0 1-115.869538-94.995693l-1.181539-6.931692-50.136615-362.102154A59.076923 59.076923 0 0 1 153.206154 267.027692l4.765538 3.741539L285.538462 380.809846l185.107692-227.131077a78.769231 78.769231 0 0 1 11.264-11.303384z m49.782154 61.046153l-185.107693 227.131077a78.769231 78.769231 0 0 1-107.323077 13.981539l-5.159384-4.096-88.064-75.894154 43.047384 310.390154a39.384615 39.384615 0 0 0 34.500924 33.752615l4.489846 0.236308H835.347692a39.384615 39.384615 0 0 0 38.163693-29.577846l0.827077-4.411077 43.008-310.390154-88.024616 75.894154a78.769231 78.769231 0 0 1-108.110769-4.923077l-4.371692-4.962462-185.107693-227.091692z" fill="#FF6666" p-id="942"></path><path d="M157.538462 866.461538m39.384615 0l669.538461 0q39.384615 0 39.384616 39.384616l0 0q0 39.384615-39.384616 39.384615l-669.538461 0q-39.384615 0-39.384615-39.384615l0 0q0-39.384615 39.384615-39.384616Z" fill="#FF6666" p-id="943"></path></svg>