<?xml version="1.0" standalone="no"?><!DOCTYPE svg PUBLIC "-//W3C//DTD SVG 1.1//EN" "http://www.w3.org/Graphics/SVG/1.1/DTD/svg11.dtd"><svg t="1657157230885" class="icon" viewBox="0 0 1024 1024" version="1.1" xmlns="http://www.w3.org/2000/svg" p-id="1228" xmlns:xlink="http://www.w3.org/1999/xlink" width="200" height="200"><defs><style type="text/css">@font-face { font-family: feedback-iconfont; src: url("//at.alicdn.com/t/font_1031158_u69w8yhxdu.woff2?t=1630033759944") format("woff2"), url("//at.alicdn.com/t/font_1031158_u69w8yhxdu.woff?t=1630033759944") format("woff"), url("//at.alicdn.com/t/font_1031158_u69w8yhxdu.ttf?t=1630033759944") format("truetype"); }
</style></defs><path d="M452.923077 551.384615H196.923077v275.692308h512v-275.692308z" fill="#FDEBAF" p-id="1229"></path><path d="M757.76 236.307692a118.153846 118.153846 0 0 1 117.366154 104.52677l54.823384 472.615384A118.153846 118.153846 0 0 1 812.583385 945.230769H132.647385a118.153846 118.153846 0 0 1-117.366154-131.780923l54.784-472.615384A118.153846 118.153846 0 0 1 187.470769 236.307692h570.368z m0 78.769231H187.470769a39.384615 39.384615 0 0 0-38.360615 30.326154l-0.787692 4.529231-54.784 472.615384a39.384615 39.384615 0 0 0 34.500923 43.638154l4.608 0.275692h679.936a39.384615 39.384615 0 0 0 39.384615-39.34523l-0.275692-4.568616-54.744616-472.615384a39.384615 39.384615 0 0 0-34.619077-34.579693L757.799385 315.076923z" fill="#FF9102" p-id="1230"></path><path d="M433.230769 393.846154m39.384616 0l0 0q39.384615 0 39.384615 39.384615l0 275.692308q0 39.384615-39.384615 39.384615l0 0q-39.384615 0-39.384616-39.384615l0-275.692308q0-39.384615 39.384616-39.384615Z" fill="#FF9102" p-id="1231"></path><path d="M347.961076 448.353461m34.108077-19.692308l68.216155-39.384615q34.108077-19.692308 53.800385 14.41577l0 0q19.692308 34.108077-14.415769 53.800385l-68.216155 39.384615q-34.108077 19.692308-53.800385-14.41577l0 0q-19.692308-34.108077 14.415769-53.800385Z" fill="#FF9102" p-id="1232"></path><path d="M472.615385 39.384615a236.307692 236.307692 0 0 1 236.307692 236.307693v39.384615H236.307692V275.692308a236.307692 236.307692 0 0 1 236.307693-236.307693z m0 78.769231a157.617231 157.617231 0 0 0-150.843077 112.049231L320 236.307692h305.112615l-1.654153-6.104615a157.617231 157.617231 0 0 0-143.005539-111.852308L472.615385 118.153846z" fill="#FF9102" p-id="1233"></path></svg>