<svg width="32" height="32" viewBox="0 0 32 32" fill="none" xmlns="http://www.w3.org/2000/svg">
<g clip-path="url(#clip0)">
<path d="M23.0698 12.2734L17.2136 3.93277C16.8587 3.57785 16.5038 3.40039 15.9714 3.40039C15.439 3.40039 15.0841 3.57785 14.7292 4.11023L8.873 12.2734L1.95206 9.96641C1.41968 9.78895 0.8873 9.96641 0.53238 10.3213C0 10.8537 0 11.3861 0 11.9185L3.5492 27.3575C3.5492 27.7124 3.90412 27.8899 4.08158 27.8899H27.6838C28.0387 27.8899 28.2162 27.7124 28.2162 27.3575L31.7654 11.9185C31.9428 11.3861 31.7654 10.8537 31.233 10.3213C30.8781 9.96641 30.1682 9.78895 29.6358 9.96641L23.0698 12.2734Z" fill="#FEC675"/>
<path d="M23.0701 12.2734L17.0364 3.57785C16.859 3.40039 16.5041 3.40039 16.3266 3.40039C16.1491 3.57785 15.9717 3.75531 15.9717 3.93277L16.1491 27.7124H27.8615C28.2164 27.7124 28.3939 27.535 28.3939 27.18L31.9431 11.741C32.1206 11.2086 31.9431 10.6763 31.4107 10.1439C31.0558 9.78895 30.346 9.61149 29.8136 9.78895L23.0701 12.2734Z" fill="#FFDBA5"/>
<path d="M22.0045 16.1774L16.8582 23.6307C16.6807 23.9857 16.3258 24.1631 15.9709 24.1631H13.4864L11.3569 16.3549C11.1794 16.1774 11.002 15.9999 10.6471 15.8225L9.75977 15.645H13.8413L15.4385 21.3237L18.9877 16.5323V16.1774C18.9877 15.9999 18.8102 15.9999 18.6328 15.8225L17.9229 15.645H21.2947C21.4721 15.645 21.6496 15.645 21.6496 15.8225C22.182 15.8225 22.182 15.9999 22.0045 16.1774Z" fill="#A97539"/>
</g>
<defs>
<clipPath id="clip0">
<rect width="32" height="32" fill="white"/>
</clipPath>
</defs>
</svg>
