<?xml version="1.0" standalone="no"?><!DOCTYPE svg PUBLIC "-//W3C//DTD SVG 1.1//EN" "http://www.w3.org/Graphics/SVG/1.1/DTD/svg11.dtd"><svg t="1641439126576" class="icon" viewBox="0 0 1024 1024" version="1.1" xmlns="http://www.w3.org/2000/svg" p-id="12288" xmlns:xlink="http://www.w3.org/1999/xlink" width="48" height="48"><defs><style type="text/css"></style></defs><path d="M467 688h-0.2c-8.8-0.1-17.2-3.7-23.2-10.1l-170-181.8c-12.1-12.9-11.4-33.2 1.5-45.2 12.9-12.1 33.2-11.4 45.2 1.5l147 157.1 222.6-231.7c12.2-12.7 32.5-13.1 45.2-0.9 12.7 12.2 13.1 32.5 0.9 45.2l-246 256c-5.9 6.4-14.3 9.9-23 9.9z" fill="#0080ff" p-id="12289" data-spm-anchor-id="a313x.7781069.0.i30" class=""></path><path d="M505 947.2c-36.2 0-78.1-12.2-121.2-35.4-39.5-21.2-79.3-50.9-115-85.8C185.1 744.2 137 646.8 137 558.7V212.9c0-17.5 14-31.7 31.5-32l58.2-0.9c40.5-2 80.1-10.8 117.7-26.2 65.3-27.1 105.8-57.1 106.2-57.4l0.1-0.1 35-26c11.3-8.4 26.7-8.4 38.1-0.1l35.5 26.2 0.3 0.3c1.9 1.4 42.4 30.8 105.8 57.1 37.7 15.1 77.3 23.9 117.8 26.2l58.2 0.9c17.5 0.3 31.5 14.5 31.5 32v28.9l0.1 316.9c0 47.9-13.5 97.5-40.2 147.4-0.1 0.1-0.1 0.2-0.2 0.3-24.4 44.5-55.2 84.7-91.5 119.7-34 33.5-72.3 62.1-113.9 85.1-0.1 0.1-0.2 0.1-0.3 0.2-43.8 23.4-85.9 35.8-121.9 35.8zM201 244.4v314.3c0 71 41 151.7 112.6 221.5 31.5 30.8 66.3 56.8 100.6 75.2 33.8 18.2 65.2 27.8 90.9 27.8 25 0 57.5-10 91.4-28.2 36.4-20.1 70.1-45.3 99.9-74.7l0.3-0.3c31.7-30.5 58.5-65.6 79.9-104.3 21.6-40.5 32.5-79.9 32.5-117.1l-0.1-314.2-26.8-0.4h-1.7c-47.7-2.7-94.4-13-138.8-30.8-0.1 0-0.2-0.1-0.4-0.1-63.9-26.5-109.5-57.4-119.8-65.1l-16.4-12.1-16.1 11.7c-3 2.2-47.8 35.3-120.1 65.3-0.1 0-0.1 0.1-0.2 0.1-44.6 18.2-91.5 28.6-139.5 30.9h-1.1l-27.1 0.5zM804.6 691zM559.7 96.7c0.5 0.4 0.9 0.7 1.4 1.1-0.1-0.1-0.5-0.5-1.4-1.1z m-0.1-0.1z" fill="#ffffff" p-id="12290" data-spm-anchor-id="a313x.7781069.0.i31" class="selected"></path></svg>