<svg xmlns="http://www.w3.org/2000/svg" viewBox="0 0 76.08 85.52"><title>&#x8D44;&#x6E90; 147</title><path d="M0 44.71V25.84c0-.57-.24-1.31.42-1.62s1.14.14 1.64.46C5.74 27 9.57 29 13.29 31.16Q24 37.42 34.8 43.61a2.73 2.73 0 0 1 1.5 2.7v37.52c0 1.84-.24 2-1.92 1.24s-3.1-1.75-4.64-2.64L20.25 77c-2.22-1.28-4.41-2.6-6.63-3.88S9.23 70.63 7 69.37 2.87 66.93.77 65.76C0 65.34 0 64.71 0 64V44.71zm8.49 4.71v9.82c0 .56 0 1.1.58 1.45q8.6 4.94 17.18 9.9c.88.51 1.22.33 1.23-.7V50.24a1.53 1.53 0 0 0-.86-1.44c-1.87-1.06-3.73-2.15-5.59-3.22-3.71-2.13-7.42-4.26-11.13-6.36-.4-.23-.74-.87-1.22-.56s-.2.91-.2 1.38c.04 3.12.05 6.25.05 9.38z" fill="#e8391c"/><path d="M76.06 44.68v18.66a2.53 2.53 0 0 1-1.5 2.55c-8.56 4.89-17.13 9.86-25.7 14.8l-7.33 4.25c-1.52.88-1.9.68-1.9-1V46.39a2.69 2.69 0 0 1 1.52-2.6Q52 37.54 62.78 31.27q5.79-3.36 11.57-6.73c1.22-.72 1.7-.49 1.7.92.01 6.4 0 12.81.01 19.22zM48.12 60.14v10c0 1.1.21 1.23 1.16.7 1.27-.7 2.5-1.47 3.75-2.19 4.57-2.64 9.14-5.29 13.73-7.91a1.42 1.42 0 0 0 .79-1.35V39.28c0-1-.32-1.11-1.18-.62q-8.58 5-17.18 9.94a1.92 1.92 0 0 0-1.09 1.88c.05 3.25.02 6.46.02 9.66z" fill="#fecc01"/><path d="M37.62 41.08a10.83 10.83 0 0 1-1.55-.68C33 38.62 30 36.78 27 35c-3.4-2-6.84-3.88-10.25-5.84-3.06-1.76-6.1-3.56-9.15-5.34a47.6 47.6 0 0 1-4.32-2.51c-.87-.65-.88-1 0-1.56 2.74-1.65 5.51-3.25 8.27-4.85q7-4 13.91-8L37 .29a1.77 1.77 0 0 1 2 0q5.67 3.33 11.39 6.6c2.89 1.66 5.8 3.3 8.7 4.95 2.19 1.26 4.38 2.52 6.56 3.8s4.6 2.72 6.9 4.08c1.05.62 1.09 1 0 1.63-1.91 1.15-3.86 2.24-5.79 3.36-4.27 2.48-8.53 5-12.81 7.45-3 1.73-6 3.37-9 5.14-2 1.2-4 2.39-6.08 3.51a1.46 1.46 0 0 1-1.25.27zm.45-9.48c.16-.05.41-.13.65-.23 1.81-.78 3.39-2 5.11-2.91 2.38-1.3 4.71-2.69 7.06-4.05q2.76-1.59 5.49-3.21c.69-.41.81-.83 0-1.26-.63-.32-1.2-.75-1.81-1.11l-7.23-4.19c-2.7-1.56-5.41-3.1-8.11-4.67a2.25 2.25 0 0 0-2.53 0c-1.34.88-2.77 1.59-4.15 2.39-4.37 2.53-8.7 5.11-13.07 7.64-.69.4-.82.65-.11 1.16 1.33.95 2.83 1.62 4.24 2.44 4.32 2.49 8.63 5 13 7.48a2.94 2.94 0 0 0 1.46.52z" fill="#6000e8"/><path d="M24.21 58.08v5.58c0 1.32-.32 1.56-1.43.94-3.42-1.91-6.78-3.86-10.18-5.8a1.79 1.79 0 0 1-.91-1.68V45.96c0-1.26.56-1.55 1.62-.94 3.23 1.86 6.43 3.73 9.67 5.56a2.13 2.13 0 0 1 1.24 2.14c-.07 1.78-.01 3.57-.01 5.36z" fill="#e8391c"/><path d="M64.2 51.61v5.58a1.62 1.62 0 0 1-.78 1.6l-9.76 5.57c-.22.13-.47.23-.7.34-1 .43-1.47.19-1.47-.85V52.36a1.63 1.63 0 0 1 .77-1.36c2.05-1.48 4.37-2.52 6.5-3.87 1.12-.72 2.3-1.36 3.47-2 1.45-.79 2-.5 2 1.14s-.03 3.55-.03 5.34z" fill="#fecc01"/><path d="M37.81 27.42a2 2 0 0 1-1.05-.31c-3.18-1.85-6.37-3.68-9.53-5.54-1.37-.8-1.37-1.22 0-2 3.3-1.93 6.63-3.81 9.94-5.72a1.35 1.35 0 0 1 1.47 0c3.46 2 6.94 4 10.4 6 .91.53.89 1 0 1.49l-10 5.7a2.22 2.22 0 0 1-1.23.38z" fill="#6000e8"/></svg>