<?xml version="1.0" standalone="no"?><!DOCTYPE svg PUBLIC "-//W3C//DTD SVG 1.1//EN" "http://www.w3.org/Graphics/SVG/1.1/DTD/svg11.dtd"><svg t="1641437287504" class="icon" viewBox="0 0 1024 1024" version="1.1" xmlns="http://www.w3.org/2000/svg" p-id="9562" xmlns:xlink="http://www.w3.org/1999/xlink" width="48" height="48"><defs><style type="text/css"></style></defs><path d="M860.3648 654.7968c-14.1312 0-25.6-11.4688-25.6-25.6v-37.0176c0-14.1312 11.4688-25.6 25.6-25.6s25.6 11.4688 25.6 25.6v37.0176c0 14.1824-11.4688 25.6-25.6 25.6z" fill="#0080ff" p-id="9563" data-spm-anchor-id="a313x.7781069.0.i15" class="selected"></path><path d="M847.7184 187.8016h-283.5968l78.1312-77.4656a25.61536 25.61536 0 0 0 0.1536-36.1984 25.61536 25.61536 0 0 0-36.1984-0.1536l-97.0752 96.256L418.304 74.5472c-9.728-10.24-25.9584-10.7008-36.1984-0.9728s-10.7008 25.9072-0.9728 36.1984L455.168 187.8016H176.2816c-59.2896 0-107.52 48.2304-107.52 107.52v55.7568c0 45.824 28.8256 84.8896 69.2736 100.352v375.7056c0 64.9216 52.8384 117.76 117.76 117.76h512.4096c64.9216 0 117.76-52.8384 117.76-117.76v-99.6352c0-14.1312-11.4688-25.6-25.6-25.6s-25.6 11.4688-25.6 25.6v99.6352c0 36.7104-29.8496 66.56-66.56 66.56H537.6V458.5984h297.1648v52.8384c0 14.1312 11.4688 25.6 25.6 25.6s25.6-11.4688 25.6-25.6V451.4816c40.448-15.4624 69.2736-54.5792 69.2736-100.352v-55.808c0-59.2896-48.2304-107.52-107.52-107.52zM119.9616 351.0784V295.3216c0-31.0784 25.2416-56.32 56.32-56.32H486.4v168.3968H176.2816c-31.0784 0-56.32-25.2416-56.32-56.32zM486.4 893.696H255.7952c-36.7104 0-66.56-29.8496-66.56-66.56V458.5984H486.4v435.0976z m417.6384-542.6176c0 31.0784-25.2416 56.32-56.32 56.32H537.6V239.0016h310.1184c31.0784 0 56.32 25.2416 56.32 56.32v55.7568z" fill="#ffffff" p-id="9564" data-spm-anchor-id="a313x.7781069.0.i14" class=""></path></svg>