<?xml version="1.0" encoding="UTF-8"?>
<svg width="26px" height="14px" viewBox="0 0 26 14" version="1.1" xmlns="http://www.w3.org/2000/svg" xmlns:xlink="http://www.w3.org/1999/xlink">
    <title>HOT-1</title>
    <g id="HOT-1" stroke="none" stroke-width="1" fill="none" fill-rule="evenodd">
        <g id="编组-28">
            <polygon id="路径" fill="#FF7201" points="26 -4.25492974e-14 26 14 2 14 2 8.5 0 5 2 5 2 -4.25492974e-14"></polygon>
            <path d="M6.98125,10.1523438 L6.98125,7.42578125 L10.04375,7.42578125 L10.04375,10.1523438 L10.825,10.1523438 L10.825,4.1015625 L10.04375,4.1015625 L10.04375,6.73046875 L6.98125,6.73046875 L6.98125,4.1015625 L6.2,4.1015625 L6.2,10.1523438 L6.98125,10.1523438 Z M14.840625,10.2539062 C15.7208333,10.2539062 16.4239583,9.96614583 16.95,9.390625 C17.4760417,8.81510417 17.7390625,8.03645833 17.7390625,7.0546875 C17.7390625,6.1484375 17.4825521,5.41276042 16.9695313,4.84765625 C16.4565104,4.28255208 15.7794271,4 14.9382813,4 C14.0346354,4 13.3184896,4.2890625 12.7898438,4.8671875 C12.2611979,5.4453125 11.996875,6.22265625 11.996875,7.19921875 C11.996875,8.10546875 12.2559896,8.84114583 12.7742188,9.40625 C13.2924479,9.97135417 13.98125,10.2539062 14.840625,10.2539062 Z M14.840625,9.55859375 C14.2390625,9.55859375 13.7514323,9.33789062 13.3777344,8.89648438 C13.0040365,8.45507812 12.8171875,7.86848958 12.8171875,7.13671875 C12.8171875,6.41015625 13.0085938,5.82291667 13.3914063,5.375 C13.7742188,4.92708333 14.2742188,4.703125 14.8914063,4.703125 C15.5190104,4.703125 16.013151,4.91536458 16.3738281,5.33984375 C16.7345052,5.76432292 16.9148438,6.3671875 16.9148438,7.1484375 C16.9148438,7.90885417 16.730599,8.50065104 16.3621094,8.92382812 C15.9936198,9.34700521 15.4864583,9.55859375 14.840625,9.55859375 Z M20.4304688,10.1523438 L20.4304688,4.796875 L22.1765625,4.796875 L22.1765625,4.1015625 L17.9070313,4.1015625 L17.9070313,4.796875 L19.6453125,4.796875 L19.6453125,10.1523438 L20.4304688,10.1523438 Z" id="HOT" stroke="#FFFFFF" stroke-width="0.2" fill="#FFFFFF" fill-rule="nonzero"></path>
        </g>
    </g>
</svg>