<?xml version="1.0" encoding="UTF-8"?>
<svg width="38px" height="18px" viewBox="0 0 38 18" version="1.1" xmlns="http://www.w3.org/2000/svg" xmlns:xlink="http://www.w3.org/1999/xlink">
    <!-- Generator: Sketch 64 (93537) - https://sketch.com -->
    <title>hot</title>
    <desc>Created with Sketch.</desc>
    <g id="hot" stroke="none" stroke-width="1" fill="none" fill-rule="evenodd">
        <g id="编组">
            <path d="M37,1.77635684e-14 L37,18 L4,18 L3.99935931,12.242 L0.757359313,9 L3.99935931,5.757 L4,1.77635684e-14 L37,1.77635684e-14 Z" id="形状结合" fill="#FF6000"></path>
            <path d="M10.148,13 L10.148,9.16 L14.636,9.16 L14.636,13 L15.944,13 L15.944,4.432 L14.636,4.432 L14.636,8.044 L10.148,8.044 L10.148,4.432 L8.84,4.432 L8.84,13 L10.148,13 Z M21.416,13.168 C22.712,13.168 23.744,12.748 24.5,11.908 C25.22,11.092 25.58,10.036 25.58,8.728 C25.58,7.408 25.22,6.34 24.5,5.536 C23.744,4.684 22.712,4.264 21.416,4.264 C20.108,4.264 19.076,4.684 18.332,5.548 C17.612,6.364 17.264,7.42 17.264,8.728 C17.264,10.024 17.612,11.08 18.332,11.896 C19.076,12.736 20.108,13.168 21.416,13.168 Z M21.416,12.016 C20.504,12.016 19.796,11.704 19.292,11.104 C18.812,10.516 18.572,9.724 18.572,8.728 C18.572,7.72 18.812,6.928 19.292,6.34 C19.796,5.716 20.504,5.416 21.416,5.416 C22.328,5.416 23.036,5.704 23.528,6.304 C24.008,6.892 24.26,7.696 24.26,8.728 C24.26,9.748 24.008,10.552 23.528,11.128 C23.036,11.716 22.328,12.016 21.416,12.016 Z M30.404,13 L30.404,5.548 L33.26,5.548 L33.26,4.432 L26.24,4.432 L26.24,5.548 L29.108,5.548 L29.108,13 L30.404,13 Z" id="HOT" fill="#FFFFFF" fill-rule="nonzero"></path>
        </g>
    </g>
</svg>