<?xml version="1.0" standalone="no"?><!DOCTYPE svg PUBLIC "-//W3C//DTD SVG 1.1//EN" "http://www.w3.org/Graphics/SVG/1.1/DTD/svg11.dtd"><svg t="1642486912175" class="icon" viewBox="0 0 1024 1024" version="1.1" xmlns="http://www.w3.org/2000/svg" p-id="1923" xmlns:xlink="http://www.w3.org/1999/xlink" width="32" height="32"><defs><style type="text/css"></style></defs><path d="M904.448 203.264a77.264 77.264 0 0 0-77.184-77.184H196.736a77.28 77.28 0 0 0-77.2 77.184v134.096a76.8 76.8 0 0 0 21.52 53.184 76.8 76.8 0 0 1 55.68-24 29.232 29.232 0 0 1-29.2-29.184v-134.096a29.232 29.232 0 0 1 29.2-29.184h630.528a29.216 29.216 0 0 1 29.184 29.184v134.096a29.216 29.216 0 0 1-29.184 29.184 76.8 76.8 0 0 1 55.68 24 76.8 76.8 0 0 0 21.504-53.184z" fill="#666666" p-id="1924"></path><path d="M236.272 246.32h-0.16a24.08 24.08 0 1 0 0.16 0z" fill="#666666" p-id="1925"></path><path d="M326.336 246.32h-0.16a24.08 24.08 0 1 0 0.16 0z" fill="#666666" p-id="1926"></path><path d="M775.92 246.32H577.712a24 24 0 0 0 0 48h198.208a24 24 0 0 0 0-48z" fill="#0008ff" p-id="1927" data-spm-anchor-id="a313x.7781069.0.i1" class="selected"></path><path d="M196.736 366.544a77.664 77.664 0 0 0-77.2 77.216v134.08a76.912 76.912 0 0 0 22.512 54.4 76.8 76.8 0 0 1 54.688-22.8h630.528a76.8 76.8 0 0 1 54.688 22.8 76.96 76.96 0 0 0 22.496-54.4v-134.064a77.632 77.632 0 0 0-77.184-77.216z m659.712 77.216v134.08a29.232 29.232 0 0 1-29.184 29.2H196.736a29.232 29.232 0 0 1-29.2-29.2v-134.064a29.248 29.248 0 0 1 29.2-29.216h630.528a29.232 29.232 0 0 1 29.184 29.216z" fill="#666666" p-id="1928"></path><path d="M236.272 486.8h-0.16a24.08 24.08 0 1 0 0.16 0z" fill="#666666" p-id="1929"></path><path d="M326.336 486.8h-0.16a24.08 24.08 0 1 0 0.16 0z" fill="#666666" p-id="1930"></path><path d="M775.92 486.8H577.712a24 24 0 0 0 0 48h198.208a24 24 0 0 0 0-48z" fill="#0008ff" p-id="1931" data-spm-anchor-id="a313x.7781069.0.i0" class="selected"></path><path d="M196.736 609.44a77.344 77.344 0 0 0-77.2 77.2v134.08a77.296 77.296 0 0 0 77.2 77.2h361.28a24 24 0 0 0 0-48h-361.28a29.232 29.232 0 0 1-29.2-29.2v-134.08a29.232 29.232 0 0 1 29.2-29.2h630.528a29.216 29.216 0 0 1 29.184 29.2v134.08a29.232 29.232 0 0 1-29.184 29.2h-93.552a24 24 0 0 0 0 48h93.552a77.28 77.28 0 0 0 77.184-77.2v-134.08a77.328 77.328 0 0 0-77.184-77.2z" fill="#666666" p-id="1932"></path><path d="M236.112 729.68a24.08 24.08 0 1 0 0.16 0z" fill="#666666" p-id="1933"></path><path d="M326.176 729.68a24.08 24.08 0 1 0 0.16 0z" fill="#666666" p-id="1934"></path><path d="M648.256 849.92h-0.16a24.08 24.08 0 1 0 0.16 0z" fill="#666666" p-id="1935"></path><path d="M799.92 753.68a24 24 0 0 0-24-24H577.712a24 24 0 0 0 0 48h198.208a24 24 0 0 0 24-24z" fill="#0008ff" p-id="1936" data-spm-anchor-id="a313x.7781069.0.i2" class="selected"></path></svg>