<?xml version="1.0" standalone="no"?><!DOCTYPE svg PUBLIC "-//W3C//DTD SVG 1.1//EN" "http://www.w3.org/Graphics/SVG/1.1/DTD/svg11.dtd"><svg t="1642487225087" class="icon" viewBox="0 0 1024 1024" version="1.1" xmlns="http://www.w3.org/2000/svg" p-id="12252" xmlns:xlink="http://www.w3.org/1999/xlink" width="32" height="32"><defs><style type="text/css"></style></defs><path d="M224.768 256.96h63.488a32 32 0 0 0 0-64h-63.488a32 32 0 0 0 0 64zM224.768 384.32h63.488a32 32 0 0 0 0-64h-63.488a32 32 0 0 0 0 64zM224.768 512h63.488a32 32 0 0 0 0-64h-63.488a32 32 0 0 0 0 64z" fill="#515151" p-id="12253" data-spm-anchor-id="a313x.7781069.0.i14" class="selected"></path><path d="M384.512 63.808H128.896a64 64 0 0 0-64 64v768.384a64 64 0 0 0 64 64h255.616a64 64 0 0 0 64-64V127.808a64 64 0 0 0-64-64z m0 800.384a32 32 0 0 1-32 32H160.896a32 32 0 0 1-32-32V159.808a32 32 0 0 1 32-32h191.616a32 32 0 0 1 32 32v704.384z" fill="#515151" p-id="12254" data-spm-anchor-id="a313x.7781069.0.i13" class="selected"></path><path d="M256.64 704.384m-63.872 0a63.872 63.872 0 1 0 127.744 0 63.872 63.872 0 1 0-127.744 0Z" fill="#0008ff" p-id="12255" data-spm-anchor-id="a313x.7781069.0.i11" class=""></path><path d="M735.424 256.96h63.488a32 32 0 0 0 0-64h-63.488a32 32 0 0 0 0 64zM735.424 384.32h63.488a32 32 0 0 0 0-64h-63.488a32 32 0 0 0 0 64zM735.424 512h63.488a32 32 0 0 0 0-64h-63.488a32 32 0 0 0 0 64z" fill="#515151" p-id="12256" data-spm-anchor-id="a313x.7781069.0.i15" class="selected"></path><path d="M895.104 63.808H639.488a64 64 0 0 0-64 64v768.384a64 64 0 0 0 64 64h255.616a64 64 0 0 0 64-64V127.808a64 64 0 0 0-64-64z m0 800.384a32 32 0 0 1-32 32h-191.616a32 32 0 0 1-32-32V159.808a32 32 0 0 1 32-32h191.616a32 32 0 0 1 32 32v704.384z" fill="#515151" p-id="12257" data-spm-anchor-id="a313x.7781069.0.i12" class="selected"></path><path d="M767.232 704.384m-63.872 0a63.872 63.872 0 1 0 127.744 0 63.872 63.872 0 1 0-127.744 0Z" fill="#0008ff" p-id="12258" data-spm-anchor-id="a313x.7781069.0.i10" class=""></path></svg>