<?xml version="1.0" encoding="UTF-8"?>
<svg width="16px" height="16px" viewBox="0 0 16 16" version="1.1" xmlns="http://www.w3.org/2000/svg" xmlns:xlink="http://www.w3.org/1999/xlink">
    <title>云计算基础/弹性计算/GPU 云主机</title>
    <g id="云计算基础/弹性计算/GPU-云主机" stroke="none" stroke-width="1" fill="none" fill-rule="evenodd">
        <path d="M9.8,6 L9.799,6.699 L12.199,6.699 L12.2,6 L12.8,6 L12.799,6.699 L14,6.7 C14.1420161,6.7 14.2609842,6.7986801 14.2920768,6.93121275 L14.3,7 L14.299,8.2 L15,8.2 L15,8.8 L14.299,8.8 L14.299,11.2 L15,11.2 L15,11.8 L14.299,11.8 L14.3,13 C14.3,13.1420161 14.2013199,13.2609842 14.0687872,13.2920768 L14,13.3 L12.799,13.3 L12.8,14 L12.2,14 L12.199,13.3 L9.799,13.3 L9.8,14 L9.2,14 L9.199,13.3 L8,13.3 C7.85798392,13.3 7.73901581,13.2013199 7.70792321,13.0687872 L7.7,13 L7.699,11.8 L7,11.8 L7,11.2 L7.699,11.2 L7.699,8.8 L7,8.8 L7,8.2 L7.699,8.2 L7.7,7 C7.7,6.85798392 7.7986801,6.73901581 7.93121275,6.70792321 L8,6.7 L9.199,6.699 L9.2,6 L9.8,6 Z M13.7,7.3 L8.3,7.3 L8.3,12.7 L13.7,12.7 L13.7,7.3 Z M8,1.5 C9.84168647,1.5 11.4856967,2.55431182 12.2444384,4.15711212 L12.3346206,4.36028227 L11.411,4.74359011 C10.8532881,3.39972445 9.51319519,2.5 8,2.5 C5.96603616,2.5 4.32142857,4.11010534 4.32142857,6.09090909 C4.32142857,6.23547625 4.33015429,6.37808796 4.34738921,6.51677122 C4.38076036,6.78529685 4.19445501,7.03164523 3.92698988,7.07265806 C2.82218406,7.24206786 2,8.17464262 2,9.27272727 C2,10.4492618 2.9376931,11.4163053 4.12895106,11.4948496 L4.28571429,11.5 L5.5,11.5 L5.5,12.5 L4.28571429,12.5 C2.47340933,12.5 1,11.0575014 1,9.27272727 C1,7.85949804 1.92968814,6.64192024 3.24310351,6.21125601 L3.323,6.187 L3.32142857,6.09090909 C3.32142857,3.62351637 5.30355864,1.61443076 7.7860263,1.50471875 L8,1.5 Z M12,8.7 C12.1656854,8.7 12.3,8.83431458 12.3,9 L12.3,9 L12.3,11 C12.3,11.1656854 12.1656854,11.3 12,11.3 L12,11.3 L10,11.3 C9.83431458,11.3 9.7,11.1656854 9.7,11 L9.7,11 L9.7,9 C9.7,8.83431458 9.83431458,8.7 10,8.7 L10,8.7 Z M11.7,9.3 L10.3,9.3 L10.3,10.7 L11.7,10.7 L11.7,9.3 Z" id="形状结合" fill="#000000" fill-rule="nonzero"></path>
    </g>
</svg>