<?xml version="1.0" encoding="UTF-8"?>
<svg width="16px" height="16px" viewBox="0 0 16 16" version="1.1" xmlns="http://www.w3.org/2000/svg" xmlns:xlink="http://www.w3.org/1999/xlink">
    <title>默认</title>
    <g id="默认" stroke="none" stroke-width="1" fill="none" fill-rule="evenodd">
        <path d="M7.75,0.566987298 L1.68782217,4.0669873 C1.53312164,4.1563037 1.43782217,4.32136721 1.43782217,4.5 L1.43782217,11.5 C1.43782217,11.6786328 1.53312164,11.8436963 1.68782217,11.9330127 L7.75,15.4330127 C7.90470054,15.5223291 8.09529946,15.5223291 8.25,15.4330127 L14.3121778,11.9330127 C14.4668784,11.8436963 14.5621778,11.6786328 14.5621778,11.5 L14.5621778,4.5 C14.5621778,4.32136721 14.4668784,4.1563037 14.3121778,4.0669873 L8.25,0.566987298 C8.09529946,0.477670901 7.90470054,0.477670901 7.75,0.566987298 Z M8,1.577 L13.562,4.789 L13.562,11.21 L8,14.422 L2.437,11.21 L2.437,4.789 L8,1.577 Z" id="多边形" fill="#000000" fill-rule="nonzero"></path>
        <path d="M7.8324924,4.60531699 C6.50346331,4.68995137 5.45,5.77444801 5.45,7.1027972 L5.451,7.131 L5.42470253,7.13977756 C4.70744492,7.37695343 4.2,8.04300501 4.2,8.81608392 C4.2,9.79425722 5.00729441,10.5846154 6,10.5846154 L10,10.5846154 L10.1584056,10.5775686 C11.0907239,10.4906787 11.8,9.73096732 11.8,8.81608392 L11.7933167,8.66292645 C11.7313531,7.95575472 11.2443251,7.36073738 10.5753103,7.14126247 L10.549,7.134 L10.55,7.1027972 C10.55,5.71910013 9.40691915,4.6 8,4.6 L7.8324924,4.60531699 Z M8,5.2 C9.07836222,5.2 9.95,6.05335167 9.95,7.1027972 C9.95,7.17965598 9.94534593,7.25588074 9.93612244,7.33122778 C9.91636333,7.49264064 10.0288045,7.64040763 10.189643,7.66439734 C10.7681576,7.75068514 11.2,8.23981999 11.2,8.81608392 C11.2,9.41799903 10.729606,9.92184185 10.1165167,9.97919708 L9.98605443,9.98493969 L6,9.98461538 C5.33585134,9.98461538 4.8,9.46000568 4.8,8.81608392 C4.8,8.23980508 5.23200393,7.75020328 5.81252922,7.6616883 C5.97496406,7.63692122 6.08725143,7.48609418 6.06439231,7.32337988 C6.05482077,7.25524831 6.05,7.18102739 6.05,7.1027972 C6.05,6.05335167 6.92163778,5.2 8,5.2 Z" id="形状结合" fill="#000000" fill-rule="nonzero"></path>
    </g>
</svg>