<?xml version="1.0" encoding="UTF-8"?>
<svg width="16px" height="16px" viewBox="0 0 16 16" version="1.1" xmlns="http://www.w3.org/2000/svg" xmlns:xlink="http://www.w3.org/1999/xlink">
    <title>云计算基础/弹性计算/云主机</title>
    <g id="云计算基础/弹性计算/云主机" stroke="none" stroke-width="1" fill="none" fill-rule="evenodd">
        <path d="M13.7,5.5 C13.7909053,5.5 13.8755689,5.54108846 13.9318167,5.60956107 L13.9683282,5.66583592 L14.9683282,7.66583592 C14.9884403,7.70548653 15,7.75139331 15,7.8 L15,7.8 L15,13.8 C15,13.9656854 14.8656854,14.1 14.7,14.1 L14.7,14.1 L6.7,14.1 C6.53431458,14.1 6.4,13.9656854 6.4,13.8 L6.4,13.8 L6.4,7.8 C6.4,7.75139331 6.4115597,7.70548653 6.43207994,7.66487883 L6.43167184,7.66583592 L7.43167184,5.66583592 C7.47232593,5.58452775 7.54693926,5.52717766 7.63333782,5.50748996 L7.7,5.5 L13.7,5.5 Z M14.399,11.1 L6.999,11.1 L6.999,13.5 L14.399,13.5 L14.399,11.1 Z M13.7,12 L13.7,12.6 L11.7,12.6 L11.7,12 L13.7,12 Z M8,1.5 C9.84168647,1.5 11.4856967,2.55431182 12.2444384,4.15711212 L12.3346206,4.36028227 L11.411,4.74359011 C10.8532881,3.39972445 9.51319519,2.5 8,2.5 C5.96603616,2.5 4.32142857,4.11010534 4.32142857,6.09090909 C4.32142857,6.23547625 4.33015429,6.37808796 4.34738921,6.51677122 C4.38076036,6.78529685 4.19445501,7.03164523 3.92698988,7.07265806 C2.82218406,7.24206786 2,8.17464262 2,9.27272727 C2,10.4492618 2.9376931,11.4163053 4.12895106,11.4948496 L4.28571429,11.5 L5.5,11.5 L5.5,12.5 L4.28571429,12.5 C2.47340933,12.5 1,11.0575014 1,9.27272727 C1,7.85949804 1.92968814,6.64192024 3.24310351,6.21125601 L3.323,6.187 L3.32142857,6.09090909 C3.32142857,3.62351637 5.30355864,1.61443076 7.7860263,1.50471875 L8,1.5 Z M14.399,8.1 L6.999,8.1 L6.999,10.5 L14.399,10.5 L14.399,8.1 Z M13.7,9 L13.7,9.6 L11.7,9.6 L11.7,9 L13.7,9 Z M13.514,6.1 L7.885,6.1 L7.185,7.5 L14.214,7.5 L13.514,6.1 Z" id="形状结合" fill="#000000" fill-rule="nonzero"></path>
    </g>
</svg>