<?xml version="1.0" encoding="UTF-8"?>
<svg width="16px" height="16px" viewBox="0 0 16 16" version="1.1" xmlns="http://www.w3.org/2000/svg" xmlns:xlink="http://www.w3.org/1999/xlink">
    <title>云计算基础/存储/对象存储</title>
    <g id="云计算基础/存储/对象存储" stroke="none" stroke-width="1" fill="none" fill-rule="evenodd">
        <path d="M8,2.5 C10.5098488,2.5 12.5616968,4.44054692 12.6737518,6.88057428 L12.6785714,7.09090909 L12.676,7.188 L12.7565778,7.21213145 C13.9500676,7.60237745 14.8269755,8.64344505 14.977157,9.89090001 L14.9947708,10.0895169 L15,10.2727273 C15,11.9233011 13.7361556,13.2915677 12.0837928,13.4788987 L11.8986426,13.4948078 L11.7142857,13.5 L9,13.5 L9,12.5 L11.6996268,12.5002149 L11.8546194,12.4958857 C13.0585713,12.4250572 14,11.4497559 14,10.2727273 C14,9.17457785 13.1778296,8.24231943 12.0737709,8.0742345 C11.8065481,8.03355178 11.6200377,7.78786144 11.6526857,7.51953853 C11.669891,7.37813352 11.6785714,7.2351047 11.6785714,7.09090909 C11.6785714,5.11010534 10.0339638,3.5 8,3.5 C5.96603616,3.5 4.32142857,5.11010534 4.32142857,7.09090909 C4.32142857,7.23547625 4.33015429,7.37808796 4.34738921,7.51677122 C4.38076036,7.78529685 4.19445501,8.03164523 3.92698988,8.07265806 C2.82218406,8.24206786 2,9.17464262 2,10.2727273 C2,11.4492618 2.9376931,12.4163053 4.12895106,12.4948496 L4.28571429,12.5 L4.69829426,12.4997796 C4.70000405,12.499592 4.70171617,12.4994131 4.70343057,12.499243 L4.81132279,12.4993387 C5.19352345,12.5158109 5.69018213,12.4459198 6.15847767,12.2186065 C6.9893317,11.8153054 7.48758718,11.020479 7.50002008,9.63322158 C7.50037034,9.59413951 7.50519535,9.55614495 7.51400432,9.51971985 L6.51909107,10.3067477 L5.89920342,9.52205712 L7.69005617,8.10732428 C7.85371628,7.97803653 8.0773212,7.96556452 8.25229111,8.06793655 L8.323984,8.11883579 L10.1414126,9.66496386 L9.49344458,10.4266314 L8.49636169,9.5767681 C8.498967,9.59818983 8.50021592,9.62002475 8.50002059,9.64218344 C8.48415727,11.4076675 7.7690593,12.5484051 6.5951569,13.1182238 C6.04411411,13.385703 5.48535752,13.4911313 5.00073082,13.5009931 L5.001,13.5 L4.9818612,13.5013295 C4.97128905,13.5014913 4.96075297,13.5016077 4.95025383,13.5016793 L4.91,13.5 L4.28571429,13.5 C2.5359026,13.5 1.1020174,12.1552688 1.0052094,10.456093 L1,10.2727273 C1,8.92373573 1.84709188,7.75301337 3.06643116,7.27480499 L3.24310351,7.21125601 L3.323,7.187 L3.32142857,7.09090909 C3.32142857,4.69608675 5.1886774,2.73300873 7.56832119,2.51929173 L7.7860263,2.50471875 L8,2.5 Z" id="形状结合" fill="#000000" fill-rule="nonzero"></path>
    </g>
</svg>