<svg xmlns="http://www.w3.org/2000/svg" xmlns:xlink="http://www.w3.org/1999/xlink" width="167" height="123" viewBox="0 0 167 123"><defs><linearGradient id="lg01" x1="100%" y1="0" x2="100%" y2="100%"><stop offset="0" stop-color="#f0f5ff" stop-opacity="1" /><stop offset="1" stop-color="#f0f5ff" stop-opacity="0" /></linearGradient><linearGradient id="lg02" x1="0" y1="0" x2="100%" y2="0"><stop offset="0" stop-color="#f0f5ff"/><stop offset="0.985" stop-color="#d1defb"/><stop offset="1" stop-color="#d1defb"/></linearGradient><linearGradient id="lg03" x1="0" y1="0" x2="100%" y2="0"><stop offset="0" stop-color="#ffb399"/><stop offset="0.73" stop-color="#d6e1fc"/>   </linearGradient><linearGradient id="lg04" x1="100%" y1="0" x2="100%" y2="100%"><stop offset="0" stop-color="#bfd7ff" stop-opacity="1" /><stop offset="0.73" stop-color="#bfd7ff" stop-opacity="0" /></linearGradient><linearGradient id="lg05" x1="100%" y1="100%" x2="0" y2="100%"><stop offset="0" stop-color="#ff723f"/><stop offset="1" stop-color="#ffbb76"/>    </linearGradient><linearGradient id="lg06" x1="0" y1="0" x2="100%" y2="0"><stop offset="0" stop-color="#7eacff"/><stop offset="1" stop-color="#6796fe"/></linearGradient></defs>  <path style="fill: url(#lg01);" d="M52,28a13.921,13.921,0,0,1-8.087-2.585A13.994,13.994,0,0,1,21.2,29.99,13.994,13.994,0,1,1,23.8,8.01a13.923,13.923,0,0,1,15.287.575A14,14,0,1,1,52,28Z"><animateTransform attributeType="XML" attributeName="transform" begin="0s" dur="20s" type="translateX" from="-100" to="200" repeatCount="indefinite" /></path><path style="fill: url(#lg01);" d="M153,66a13.924,13.924,0,0,1-8.088-2.585A13.994,13.994,0,0,1,122.2,67.99a13.994,13.994,0,1,1,2.6-21.98,13.922,13.922,0,0,1,15.287.575A14,14,0,1,1,153,66Z"><animateTransform attributeType="XML" attributeName="transform" begin="0s" dur="30s" type="translateX" from="80" to="-100" repeatCount="indefinite" /></path><path style="fill: url(#lg01);" d="M73,98a13.922,13.922,0,0,1-8.088-2.585A13.994,13.994,0,0,1,42.2,99.99a13.994,13.994,0,1,1,2.6-21.98,13.923,13.923,0,0,1,15.288.576A14,14,0,1,1,73,98Z"><animateTransform attributeType="XML" attributeName="transform" begin="0s" dur="40s" type="translateX" from="-100" to="200" repeatCount="indefinite" /></path><rect style="fill: #6496ff;" x="42" y="14" width="61" height="91" rx="8" ry="8"/><rect style="fill: url(#lg02);" x="52" y="7" width="74" height="98" rx="8" ry="8"/><path style="fill: url(#lg01);" d="M123,117a13.926,13.926,0,0,1-8.088-2.585A13.994,13.994,0,0,1,92.2,118.99a13.994,13.994,0,1,1,2.6-21.98,13.923,13.923,0,0,1,15.287.576A14,14,0,1,1,123,117Z"><animateTransform attributeType="XML" attributeName="transform" begin="0s" dur="25s" type="translateX" from="0" to="200" repeatCount="indefinite" /></path><rect style="fill: url(#lg03);" x="68" y="31" width="46" height="4" rx="2" ry="2"/><rect style="fill: url(#lg03);" x="68" y="46" width="46" height="4" rx="2" ry="2"/><rect style="fill: url(#lg03);" x="68" y="61" width="46" height="4" rx="2" ry="2"/><rect style="fill: url(#lg03);" x="68" y="76" width="46" height="4" rx="2" ry="2"/><path style="fill: url(#lg05);fill-rule: evenodd;" d="M48,73s11.8-.2,14,1,3,7,3,7l2,19H61l-9-6-7-7-1-7Z"/><path style="fill: #0f244d;fill-rule: evenodd;" d="M47,113.913S44.287,121,38.652,121c0,0-3.339-1.772,5.009-7.972C44.287,112.806,47,113.913,47,113.913Z"/><path style="fill: #ffe6cc;fill-rule: evenodd;" d="M46.76,110.733s1.024,3.31-1.28,4.138-1.536-2.483,0-4.138S46.76,110.733,46.76,110.733Z"/><path style="fill: #0f244d;fill-rule: evenodd;" d="M41,110.913S38.287,118,32.652,118c0,0-3.339-1.772,5.009-7.972C38.287,109.806,41,110.913,41,110.913Z"/><path style="fill: #ffe6cc;fill-rule: evenodd;" d="M40.76,107.733s1.024,3.31-1.28,4.138-1.536-2.483,0-4.138S40.76,107.733,40.76,107.733Z"/><path style="fill: #5f92ed;fill-rule: evenodd;" d="M49,84s-2.6-5.8-6-1-5,26-5,26,6,3,9,3c0.8,0,4.2-6,5-9s1,7.8,10,7c1.4-.2,5.2-0.4,5-13-6-2.4-7,2-7,2S56.8,76.2,49,84Z"/><path style="fill: #fdd8b2;fill-rule: evenodd;" d="M57,71v4s-1.572,1.857-3,0,0-4,0-4h3Z"/><path style="fill: #ffe6cc;fill-rule: evenodd;" d="M49,62l-1,4-1,2,2,1s1.34,2.8,4,3c2.6,0.2,3-.6,5-2s2-9,2-9l-7-1Z"/><path style="fill: #ffe6cc;fill-rule: evenodd;" d="M49,73s-1.55-2.15-6,3a31.106,31.106,0,0,0-5,9s-4,4,11,8c6,1.8,12.8,3.6,16-14,0.2-1-.2-4.8-4-5-1.2-1.1-1.4,13.4-6,16-2.2.6-13.6-3.2-12-5S51.6,74.5,49,73Z"/><path style="fill: #0f244d;fill-rule: evenodd;" d="M63.907,61.845a7.92,7.92,0,0,1-6.022,8.922,7.481,7.481,0,0,0-9.856-8.342,7.989,7.989,0,0,1,12.982-5.656A2.99,2.99,0,1,1,63.907,61.845Z"/><path style="fill: #3572f1;fill-rule: evenodd;" d="M47,93l-6,18h2Z"/><path style="fill: #3572f1;fill-rule: evenodd;" d="M53,103s1.5,6.75,8,7C61.5,110,57,109.75,53,103Z"/><g id="search"><path style="fill: url(#lg06);fill-rule: evenodd;" d="M129.547,87.038L149.9,108.393a5,5,0,0,1-7.072,7.071L122.476,94.109A5,5,0,0,1,129.547,87.038Z"/><path style="fill: #0e234c;fill-rule: evenodd;" d="M117.464,86.293l3.829-3.829,4.242,4.243-3.828,3.828Z"/><circle style="fill: url(#lg06);" cx="104" cy="68" r="24"/><circle style="fill: #fff;" cx="104" cy="68" r="19"/>	<path style=" fill: url(#lg04);fill-rule: evenodd;" d="M101,49a19,19,0,0,1,0,38s22.707,1.574,23-19C122,46,101,49,101,49Z"/><animateMotion path="M 0 0 H 10 Z" dur="3s" repeatCount="indefinite" /></g></svg>
